<svg id="svg" xmlns="http://www.w3.org/2000/svg" xmlns:xlink="http://www.w3.org/1999/xlink" width="400" height="61.29032258064516" viewBox="0, 0, 400,61.29032258064516"><g id="svgg"><path id="path0" d="M65.903 3.165 C 61.148 3.485,57.515 4.192,52.774 5.718 C 33.915 11.792,19.292 22.897,17.644 32.395 C 17.516 33.130,17.487 33.120,18.142 32.559 C 33.552 19.357,62.479 11.501,83.968 14.682 C 85.077 14.846,86.471 15.116,85.935 15.063 C 85.776 15.047,85.224 14.991,84.710 14.939 C 80.370 14.502,74.991 14.583,69.774 15.165 C 60.758 16.170,51.475 18.578,42.677 22.196 C 41.826 22.546,40.354 23.138,39.407 23.511 C 22.268 30.269,10.138 40.758,5.229 53.065 C 3.980 56.195,3.981 56.198,6.907 57.069 C 9.222 57.759,9.660 57.691,9.965 56.598 C 11.528 50.994,14.513 45.927,19.208 40.907 L 19.717 40.362 20.262 40.909 C 27.162 47.839,45.012 48.869,64.161 43.443 C 76.811 39.858,87.797 31.807,97.281 19.170 C 99.329 16.441,102.730 11.277,102.573 11.134 C 102.433 11.006,99.996 9.889,98.484 9.259 C 90.583 5.967,82.564 3.973,74.323 3.252 C 72.937 3.131,67.275 3.072,65.903 3.165 M255.452 3.315 C 252.471 4.404,251.069 6.355,251.066 9.419 C 251.061 13.399,252.782 15.045,258.452 16.486 C 261.791 17.335,262.733 17.995,262.630 19.412 C 262.416 22.391,257.504 21.990,253.589 18.675 C 253.097 18.258,253.078 18.248,252.965 18.364 C 252.762 18.573,250.065 21.901,250.065 21.943 C 250.064 22.108,251.940 23.518,252.935 24.101 C 256.590 26.240,261.624 26.501,264.643 24.706 C 267.111 23.240,268.222 20.817,267.778 17.871 C 267.324 14.863,265.402 13.274,260.763 12.073 C 257.054 11.113,256.189 10.555,256.271 9.176 C 256.426 6.591,260.750 6.501,264.337 9.007 C 264.610 9.198,264.859 9.355,264.890 9.355 C 264.938 9.355,265.537 8.513,267.058 6.309 L 267.491 5.682 266.958 5.287 C 265.782 4.415,264.398 3.735,262.946 3.317 L 262.183 3.097 259.108 3.100 L 256.032 3.103 255.452 3.315 M121.806 14.419 L 121.806 25.613 124.323 25.613 L 126.839 25.613 126.839 21.226 L 126.839 16.839 131.258 16.839 L 135.677 16.839 135.677 21.226 L 135.677 25.613 138.194 25.613 L 140.710 25.613 140.710 14.419 L 140.710 3.226 138.194 3.226 L 135.677 3.226 135.677 7.903 L 135.677 12.581 131.258 12.581 L 126.839 12.581 126.839 7.903 L 126.839 3.226 124.323 3.226 L 121.806 3.226 121.806 14.419 M151.269 14.370 C 148.619 20.500,146.451 25.538,146.451 25.565 C 146.451 25.592,147.660 25.607,149.137 25.597 L 151.823 25.581 152.836 23.226 L 153.850 20.871 158.522 20.856 L 163.194 20.841 164.185 23.154 C 164.730 24.427,165.196 25.500,165.221 25.541 C 165.254 25.594,165.996 25.610,167.945 25.597 L 170.624 25.581 165.799 14.419 L 160.974 3.258 158.531 3.241 L 156.087 3.224 151.269 14.370 M176.323 14.414 L 176.323 25.613 178.871 25.613 L 181.419 25.613 181.419 22.063 L 181.419 18.514 183.112 18.531 L 184.805 18.548 187.257 22.079 L 189.710 25.609 192.830 25.611 L 195.950 25.613 195.855 25.468 C 195.803 25.388,194.538 23.597,193.044 21.488 L 190.327 17.654 190.913 17.375 C 193.264 16.258,194.401 14.273,194.497 11.117 C 194.632 6.710,192.981 4.458,189.000 3.618 C 187.475 3.297,187.070 3.277,181.532 3.244 L 176.323 3.214 176.323 14.414 M199.560 3.344 C 199.571 3.410,201.584 8.447,204.032 14.537 L 208.484 25.610 210.645 25.611 L 212.806 25.611 217.274 14.499 C 219.732 8.388,221.742 3.350,221.742 3.306 C 221.742 3.241,221.176 3.228,219.019 3.241 L 216.297 3.258 213.490 10.274 C 211.947 14.133,210.667 17.290,210.645 17.290 C 210.624 17.290,209.343 14.133,207.800 10.274 L 204.994 3.258 202.266 3.241 C 199.639 3.225,199.540 3.229,199.560 3.344 M227.548 14.419 L 227.548 25.613 235.806 25.613 L 244.065 25.613 244.065 23.387 L 244.065 21.161 238.323 21.161 L 232.581 21.161 232.581 18.871 L 232.581 16.581 237.613 16.581 L 242.645 16.581 242.645 14.419 L 242.645 12.258 237.613 12.258 L 232.581 12.258 232.581 10.000 L 232.581 7.742 238.161 7.742 L 243.742 7.742 243.742 5.484 L 243.742 3.226 235.645 3.226 L 227.548 3.226 227.548 14.419 M273.226 5.419 L 273.226 7.613 276.387 7.613 L 279.548 7.613 279.548 16.613 L 279.548 25.613 282.065 25.613 L 284.581 25.613 284.581 16.613 L 284.581 7.613 287.742 7.613 L 290.903 7.613 290.903 5.419 L 290.903 3.226 282.065 3.226 L 273.226 3.226 273.226 5.419 M297.677 14.419 L 297.677 25.613 304.968 25.613 L 312.258 25.613 312.258 23.387 L 312.258 21.161 307.516 21.161 L 302.774 21.161 302.774 12.194 L 302.774 3.226 300.226 3.226 L 297.677 3.226 297.677 14.419 M325.671 3.532 C 325.598 3.701,323.461 8.644,320.922 14.516 C 318.383 20.389,316.265 25.288,316.216 25.403 L 316.127 25.613 318.826 25.613 L 321.526 25.613 322.553 23.226 L 323.581 20.838 328.247 20.855 L 332.913 20.871 333.928 23.226 L 334.944 25.581 337.640 25.597 C 340.192 25.613,340.335 25.608,340.295 25.501 C 340.272 25.438,338.099 20.401,335.466 14.306 L 330.678 3.226 328.240 3.226 L 325.802 3.226 325.671 3.532 M346.065 14.419 L 346.065 25.613 348.580 25.613 L 351.096 25.613 351.113 18.684 L 351.129 11.754 356.388 18.667 L 361.647 25.581 364.210 25.598 L 366.774 25.614 366.774 14.420 L 366.774 3.226 364.226 3.226 L 361.678 3.226 361.662 10.350 L 361.645 17.475 356.225 10.366 L 350.804 3.258 348.434 3.241 L 346.065 3.224 346.065 14.419 M375.355 14.417 L 375.355 25.620 380.371 25.596 C 385.928 25.570,386.116 25.558,387.906 25.096 C 392.948 23.796,395.677 20.024,395.677 14.355 C 395.677 8.006,392.333 4.289,385.801 3.377 C 385.200 3.294,384.175 3.269,380.210 3.244 L 375.355 3.214 375.355 14.417 M187.284 7.797 C 188.788 8.188,189.286 8.847,189.339 10.516 C 189.405 12.585,188.727 13.573,186.968 13.973 C 186.570 14.064,186.033 14.088,183.952 14.111 L 181.419 14.139 181.419 10.871 L 181.419 7.603 184.081 7.630 C 186.559 7.654,186.779 7.666,187.284 7.797 M385.387 7.833 C 389.471 8.611,391.491 12.207,390.356 16.680 C 389.536 19.913,387.328 21.157,382.403 21.160 L 380.452 21.161 380.452 14.414 L 380.452 7.666 382.629 7.694 C 384.322 7.716,384.936 7.747,385.387 7.833 M159.875 13.130 C 160.591 14.797,161.191 16.212,161.209 16.274 C 161.239 16.380,161.081 16.387,158.524 16.387 C 157.029 16.387,155.806 16.374,155.806 16.359 C 155.806 16.343,156.390 14.986,157.104 13.342 C 157.817 11.699,158.428 10.285,158.460 10.201 C 158.540 9.993,158.420 9.745,159.875 13.130 M329.632 13.238 C 330.365 14.948,330.956 16.356,330.944 16.368 C 330.933 16.379,329.706 16.381,328.218 16.372 L 325.512 16.355 326.864 13.242 C 327.607 11.530,328.234 10.129,328.258 10.129 C 328.281 10.129,328.899 11.528,329.632 13.238 M131.160 35.101 C 127.063 35.380,123.434 37.794,121.614 41.452 C 119.752 45.194,120.134 50.325,122.511 53.503 C 122.691 53.744,122.839 53.958,122.839 53.979 C 122.839 54.092,124.577 55.710,125.098 56.082 C 128.910 58.802,134.641 58.940,138.484 56.405 C 139.501 55.734,141.297 54.137,141.287 53.912 C 141.285 53.872,140.564 53.101,139.684 52.199 L 138.084 50.559 137.834 50.844 C 133.840 55.407,126.830 53.833,125.777 48.138 C 124.941 43.614,127.929 39.916,132.419 39.916 C 134.517 39.916,136.019 40.547,137.564 42.077 L 138.325 42.831 139.251 41.786 C 141.133 39.662,141.419 39.327,141.419 39.252 C 141.419 38.989,139.395 37.291,138.332 36.663 C 136.603 35.642,133.897 34.943,132.065 35.042 C 131.976 35.047,131.569 35.074,131.160 35.101 M238.968 35.101 C 234.884 35.400,231.267 37.768,229.447 41.335 C 227.774 44.614,227.842 49.264,229.609 52.407 C 230.214 53.483,231.822 55.381,232.462 55.774 C 232.519 55.810,232.837 56.023,233.168 56.248 C 236.825 58.739,242.295 58.886,245.987 56.593 C 247.068 55.922,249.138 54.122,249.083 53.901 C 249.073 53.860,248.350 53.092,247.476 52.196 L 245.887 50.567 245.347 51.132 C 241.031 55.649,234.044 53.437,233.480 47.374 C 232.852 40.622,240.713 37.267,245.525 42.234 L 246.115 42.843 247.654 41.098 C 248.501 40.139,249.202 39.328,249.213 39.296 C 249.274 39.115,247.655 37.656,246.659 36.994 C 244.790 35.750,241.920 34.933,239.806 35.043 C 239.718 35.047,239.340 35.073,238.968 35.101 M148.387 46.774 L 148.387 58.000 150.903 58.000 L 153.419 58.000 153.419 53.581 L 153.419 49.161 157.839 49.161 L 162.258 49.161 162.258 53.581 L 162.258 58.000 164.774 58.000 L 167.290 58.000 167.290 46.774 L 167.290 35.548 164.774 35.548 L 162.258 35.548 162.258 40.226 L 162.258 44.903 157.839 44.903 L 153.419 44.903 153.419 40.226 L 153.419 35.548 150.903 35.548 L 148.387 35.548 148.387 46.774 M175.613 42.215 C 175.613 49.062,175.632 49.700,175.876 50.919 C 176.771 55.387,180.393 58.201,185.239 58.192 C 189.910 58.185,193.384 55.635,194.446 51.435 C 194.801 50.034,194.797 50.126,194.822 42.565 L 194.846 35.548 192.294 35.548 L 189.742 35.548 189.742 42.217 C 189.742 49.986,189.745 49.938,189.068 51.283 C 187.335 54.725,182.562 54.438,181.153 50.806 C 180.666 49.553,180.688 49.918,180.662 42.339 L 180.639 35.548 178.126 35.548 L 175.613 35.548 175.613 42.215 M203.161 46.774 L 203.161 58.000 205.677 58.000 L 208.194 58.000 208.194 54.419 L 208.194 50.839 209.887 50.841 L 211.581 50.843 214.064 54.421 L 216.548 58.000 219.629 58.000 C 221.584 58.000,222.710 57.977,222.710 57.937 C 222.710 57.903,221.450 56.096,219.910 53.922 L 217.110 49.970 217.449 49.832 C 220.163 48.728,221.531 46.018,221.286 42.234 C 221.031 38.301,219.103 36.372,214.831 35.776 C 213.543 35.596,212.065 35.550,207.565 35.549 L 203.161 35.548 203.161 46.774 M256.194 46.774 L 256.194 58.000 258.710 58.000 L 261.226 58.000 261.226 53.581 L 261.226 49.161 265.645 49.161 L 270.065 49.161 270.065 53.581 L 270.065 58.000 272.581 58.000 L 275.097 58.000 275.097 46.774 L 275.097 35.548 272.581 35.548 L 270.065 35.548 270.065 40.226 L 270.065 44.903 265.645 44.903 L 261.226 44.903 261.226 40.226 L 261.226 35.548 258.710 35.548 L 256.194 35.548 256.194 46.774 M214.058 40.120 C 215.403 40.469,215.960 41.083,216.133 42.413 C 216.362 44.167,215.723 45.613,214.521 46.063 C 213.663 46.383,213.471 46.402,210.758 46.433 L 208.194 46.462 208.194 43.193 L 208.194 39.924 210.855 39.952 C 213.326 39.978,213.555 39.990,214.058 40.120 " stroke="none" fill="#000000" fill-rule="evenodd"></path></g></svg>